name Walk8.mot
datacolumns 19
datarows 22
range 0.79500000 0.81600000
endheader

                time	   L_ground_force_vx	   L_ground_force_vy	   L_ground_force_vz	   L_ground_force_px	   L_ground_force_py	   L_ground_force_pz	   R_ground_force_vx	   R_ground_force_vy	   R_ground_force_vz	   R_ground_force_px	   R_ground_force_py	   R_ground_force_pz	   L_ground_torque_x	   L_ground_torque_y	   L_ground_torque_z	   R_ground_torque_x	   R_ground_torque_y	   R_ground_torque_z	
          0.79500000	         -5.00330313	        107.36499898	         -8.81620945	          0.00028070	          0.00000000	          0.00192591	          0.00000001	         -0.00000008	         -0.00000001	         -0.00000000	          0.00000000	         -0.00000000	          0.00000000	          0.24320824	          0.00000000	          0.00000000	         -0.00000000	          0.00000000	
          0.79600000	         -5.65820150	        117.16629548	         -9.42265927	         -0.01079876	          0.00000000	          0.00114412	          0.00000001	         -0.00000008	         -0.00000001	         -0.00000000	          0.00000000	         -0.00000000	          0.00000000	          0.27141975	          0.00000000	          0.00000000	         -0.00000000	          0.00000000	
          0.79700000	         -6.35775838	        127.15451089	        -10.03738534	         -0.02183674	          0.00000000	          0.00036657	          0.00000001	         -0.00000008	         -0.00000001	         -0.00000000	          0.00000000	         -0.00000000	          0.00000000	          0.30041725	          0.00000000	          0.00000000	         -0.00000000	          0.00000000	
          0.79800000	         -7.10310399	        137.31041542	        -10.65879045	         -0.03280039	          0.00000000	         -0.00040455	          0.00000001	         -0.00000007	         -0.00000001	         -0.00000000	          0.00000000	         -0.00000000	          0.00000000	          0.33016832	          0.00000000	          0.00000000	         -0.00000000	          0.00000000	
          0.79900000	         -7.89526815	        147.61280679	        -11.28512143	         -0.04365677	          0.00000000	         -0.00116708	          0.00000001	         -0.00000007	         -0.00000000	         -0.00000000	          0.00000000	         -0.00000000	          0.00000000	          0.36063587	          0.00000000	          0.00000000	         -0.00000000	          0.00000000	
          0.80000000	         -8.73516495	        158.03842244	        -11.91446320	         -0.05437366	          0.00000000	         -0.00191890	          0.00000001	         -0.00000007	         -0.00000000	         -0.00000000	          0.00000000	         -0.00000000	          0.00000000	          0.39177778	          0.00000000	          0.00000000	         -0.00000000	          0.00000000	
          0.80100000	         -9.62357299	        168.56195880	        -12.54473707	         -0.06492094	          0.00000000	         -0.00265805	          0.00000001	         -0.00000006	         -0.00000000	         -0.00000000	          0.00000000	         -0.00000000	          0.00000000	          0.42354685	          0.00000000	          0.00000000	         -0.00000000	          0.00000000	
          0.80200000	        -10.56111383	        179.15622727	        -13.17370240	         -0.07527138	          0.00000000	         -0.00338282	          0.00000001	         -0.00000006	         -0.00000000	         -0.00000000	          0.00000000	         -0.00000000	          0.00000000	          0.45589131	          0.00000000	          0.00000000	         -0.00000000	          0.00000000	
          0.80300000	        -11.54823084	        189.79247321	        -13.79896087	         -0.08540076	          0.00000000	         -0.00409172	          0.00000001	         -0.00000005	         -0.00000000	         -0.00000000	          0.00000000	         -0.00000000	          0.00000000	          0.48875590	          0.00000000	          0.00000000	         -0.00000000	          0.00000000	
          0.80400000	        -12.58516859	        200.44088586	        -14.41796344	         -0.09528775	          0.00000000	         -0.00478356	          0.00000001	         -0.00000004	         -0.00000000	          0.00000000	          0.00000000	          0.00000000	          0.00000000	          0.52208353	          0.00000000	          0.00000000	         -0.00000000	          0.00000000	
          0.80500000	        -13.67195188	        211.07129446	        -15.02802054	         -0.10491367	          0.00000000	         -0.00545738	          0.00000001	         -0.00000003	         -0.00000000	          0.00000000	          0.00000000	          0.00000000	          0.00000000	          0.55581710	          0.00000000	          0.00000000	         -0.00000000	          0.00000000	
          0.80600000	        -14.80836282	        221.65399182	        -15.62631614	         -0.11426245	          0.00000000	         -0.00611244	          0.00000001	         -0.00000002	          0.00000000	          0.00000000	          0.00000000	          0.00000000	          0.00000000	          0.58990154	          0.00000000	          0.00000000	         -0.00000000	          0.00000000	
          0.80700000	        -15.99391510	        232.16057732	        -16.20992667	         -0.12332037	          0.00000000	         -0.00674819	          0.00000001	         -0.00000001	          0.00000000	          0.00000000	          0.00000000	          0.00000000	          0.00000000	          0.62428539	          0.00000000	          0.00000000	         -0.00000000	          0.00000000	
          0.80800000	        -17.22782713	        242.56468919	        -16.77584638	         -0.13207602	          0.00000000	         -0.00736426	          0.00000001	         -0.00000000	          0.00000000	          0.00000000	          0.00000000	          0.00000000	          0.00000000	          0.65892178	          0.00000000	          0.00000000	         -0.00000000	          0.00000000	
          0.80900000	        -18.50899776	        252.84251779	        -17.32102004	         -0.14052009	          0.00000000	         -0.00796044	          0.00000001	          0.00000001	          0.00000000	          0.00000000	          0.00000000	          0.00000000	          0.00000000	          0.69376843	          0.00000000	          0.00000000	         -0.00000000	          0.00000000	
          0.81000000	        -19.83598938	        262.97304897	        -17.84238311	         -0.14864522	          0.00000000	         -0.00853666	          0.00000001	          0.00000002	          0.00000001	          0.00000000	          0.00000000	          0.00000000	          0.00000000	          0.72878666	          0.00000000	          0.00000000	         -0.00000000	          0.00000000	
          0.81100000	        -21.20702104	        272.93805265	        -18.33690811	         -0.15644593	          0.00000000	         -0.00909295	          0.00000001	          0.00000004	          0.00000001	          0.00000000	          0.00000000	          0.00000000	          0.00000000	          0.76393987	          0.00000000	          0.00000000	         -0.00000000	          0.00000000	
          0.81200000	        -22.61997186	        282.72188159	        -18.80165443	         -0.16391841	          0.00000000	         -0.00962944	          0.00000001	          0.00000005	          0.00000001	          0.00000000	          0.00000000	          0.00000000	          0.00000000	          0.79919188	          0.00000000	          0.00000000	         -0.00000000	          0.00000000	
          0.81300000	        -24.07239287	        292.31116540	        -19.23381789	         -0.17106043	          0.00000000	         -0.01014637	          0.00000001	          0.00000007	          0.00000001	          0.00000000	          0.00000000	          0.00000000	          0.00000000	          0.83450548	          0.00000000	          0.00000000	         -0.00000000	          0.00000000	
          0.81400000	        -25.56152463	        301.69448023	        -19.63077606	         -0.17787119	          0.00000000	         -0.01064405	          0.00000001	          0.00000009	          0.00000001	          0.00000000	          0.00000000	          0.00000000	          0.00000000	          0.86984158	          0.00000000	          0.00000000	         -0.00000000	          0.00000000	
          0.81500000	        -27.08431869	        310.86205268	        -19.99012614	         -0.18435122	          0.00000000	         -0.01112284	          0.00000001	          0.00000011	          0.00000002	          0.00000000	          0.00000000	          0.00000000	          0.00000000	          0.90515885	          0.00000000	          0.00000000	         -0.00000000	          0.00000000	
          0.81600000	        -28.63746249	        319.80553071	        -20.30971323	         -0.19050222	          0.00000000	         -0.01158319	          0.00000001	          0.00000013	          0.00000002	          0.00000000	          0.00000000	          0.00000000	          0.00000000	          0.94041373	          0.00000000	          0.00000000	         -0.00000000	          0.00000000	
